<?xml version="1.0" standalone="no"?>
<!DOCTYPE svg PUBLIC "-//W3C//DTD SVG 20010904//EN"
 "http://www.w3.org/TR/2001/REC-SVG-20010904/DTD/svg10.dtd">
<svg version="1.0" xmlns="http://www.w3.org/2000/svg"
 width="192.000000pt" height="192.000000pt" viewBox="0 0 192.000000 192.000000"
 preserveAspectRatio="xMidYMid meet">
<metadata>
Created by potrace 1.11, written by Peter Selinger 2001-2013
</metadata>
<g transform="translate(0.000000,192.000000) scale(0.100000,-0.100000)"
fill="#000000" stroke="none">
<path d="M905 1831 c-16 -4 -44 -15 -61 -24 -35 -18 -104 -93 -104 -113 0 -10
-47 -14 -198 -16 -198 -3 -199 -3 -234 -30 -71 -54 -69 -27 -66 -702 3 -593 3
-605 24 -632 11 -15 33 -37 48 -48 27 -21 39 -21 632 -24 671 -3 648 -5 700
64 l29 37 0 616 0 616 -23 33 c-20 27 -78 67 -104 71 -5 1 -88 1 -186 1 l-178
0 -16 34 c-23 46 -95 103 -148 115 -51 12 -72 12 -115 2z m95 -153 c11 -12 20
-30 20 -40 0 -24 -35 -58 -60 -58 -11 0 -29 9 -40 20 -11 11 -20 29 -20 40 0
26 34 60 60 60 10 0 28 -10 40 -22z m-173 -491 l53 -54 -87 -87 -87 -86 87
-88 87 -88 -53 -52 c-29 -28 -56 -52 -60 -52 -5 0 -71 63 -147 140 l-140 140
141 140 c77 77 144 140 147 140 4 0 31 -24 59 -53z m467 -82 c75 -73 136 -139
136 -145 0 -6 -62 -74 -139 -150 l-138 -138 -56 56 -56 56 86 88 86 88 -87 87
-87 87 53 53 c29 29 56 53 59 53 4 0 69 -61 143 -135z"/>
</g>
</svg>
